<svg width="18" height="15" viewBox="0 0 18 15" fill="none" xmlns="http://www.w3.org/2000/svg">
<path d="M2.33268 11.9999V11.4583C2.33268 11.1749 2.46602 10.9083 2.67435 10.7833C4.08268 9.94159 5.69102 9.49992 7.33268 9.49992C7.35768 9.49992 7.37435 9.49992 7.39935 9.50825C7.48268 8.92492 7.64935 8.36659 7.89102 7.85825C7.70768 7.84159 7.52435 7.83325 7.33268 7.83325C5.31602 7.83325 3.43268 8.39158 1.82435 9.34992C1.09102 9.78325 0.666016 10.5999 0.666016 11.4583V13.6666H8.38268C8.03268 13.1666 7.75768 12.5999 7.57435 11.9999H2.33268ZM7.33268 6.99992C9.17435 6.99992 10.666 5.50825 10.666 3.66659C10.666 1.82492 9.17435 0.333252 7.33268 0.333252C5.49102 0.333252 3.99935 1.82492 3.99935 3.66659C3.99935 5.50825 5.49102 6.99992 7.33268 6.99992ZM7.33268 1.99992C8.24935 1.99992 8.99935 2.74992 8.99935 3.66659C8.99935 4.58325 8.24935 5.33325 7.33268 5.33325C6.41602 5.33325 5.66602 4.58325 5.66602 3.66659C5.66602 2.74992 6.41602 1.99992 7.33268 1.99992ZM16.291 10.3333C16.291 10.1499 16.266 9.98325 16.241 9.80825L17.191 8.96659L16.3577 7.52492L15.1493 7.93325C14.8827 7.70825 14.5827 7.53325 14.2493 7.40825L13.9993 6.16659H12.3327L12.0827 7.40825C11.7493 7.53325 11.4493 7.70825 11.1827 7.93325L9.97435 7.52492L9.14102 8.96659L10.091 9.80825C10.066 9.98325 10.041 10.1499 10.041 10.3333C10.041 10.5166 10.066 10.6833 10.091 10.8583L9.14102 11.6999L9.97435 13.1416L11.1827 12.7333C11.4493 12.9583 11.7493 13.1333 12.0827 13.2583L12.3327 14.4999H13.9993L14.2493 13.2583C14.5827 13.1333 14.8827 12.9583 15.1493 12.7333L16.3577 13.1416L17.191 11.6999L16.241 10.8583C16.266 10.6833 16.291 10.5166 16.291 10.3333ZM13.166 11.9999C12.2493 11.9999 11.4993 11.2499 11.4993 10.3333C11.4993 9.41659 12.2493 8.66659 13.166 8.66659C14.0827 8.66659 14.8327 9.41659 14.8327 10.3333C14.8327 11.2499 14.0827 11.9999 13.166 11.9999Z" fill="#4B4A4C"/>
</svg>
