<svg width="17" height="17" viewBox="0 0 17 17" fill="none" xmlns="http://www.w3.org/2000/svg">
<path d="M2.10071 14.4136L4.56814 13.5903L5.01257 13.8064C6.04107 14.3055 7.2165 14.5714 8.5 14.5714C12.7451 14.5714 15.7857 11.5381 15.7857 7.89286C15.7857 4.23421 12.767 1.21429 8.5 1.21429C4.233 1.21429 1.21429 4.23421 1.21429 7.89286C1.22146 9.29296 1.68247 10.653 2.52814 11.7689L2.93857 12.3153L2.10071 14.4124V14.4136ZM1.24221 15.98C1.13233 16.0168 1.0142 16.0214 0.901789 15.9933C0.789375 15.9651 0.687369 15.9053 0.607819 15.8211C0.52827 15.7368 0.474502 15.6315 0.452865 15.5177C0.431228 15.4038 0.442626 15.2862 0.485714 15.1786L1.55793 12.4986C0.553934 11.1724 0.00726364 9.55625 0 7.89286C0 3.86871 3.25671 0 8.5 0C13.7433 0 17 3.86871 17 7.89286C17 11.917 13.7093 15.7857 8.5 15.7857C6.98821 15.7857 5.63793 15.4603 4.48314 14.8993L1.241 15.98H1.24221Z" fill="#4B4A4C"/>
</svg>
