<svg width="35" height="35" viewBox="0 0 35 35" fill="none" xmlns="http://www.w3.org/2000/svg">
<path d="M14.6562 11.8125L14.7292 13.4896L13.5625 15.6771L11.7396 19.25L11.375 22.2396L12.6875 26.4687L15.6771 28.1458H20.1979L24.4271 24.9375L26.3229 19.9062L21.9479 14.5833L20.7083 11.5938L14.6562 11.8125Z" fill="#ECEFF1"/>
<path d="M25.0103 15.9687C23.8436 14.2916 22.8957 13.2708 22.3853 11.1562C21.8749 9.04164 22.5311 9.62498 22.0936 7.80206C21.8749 6.85414 21.5103 6.19789 21.1457 5.68748C20.7082 5.17706 20.1978 4.88539 19.9061 4.81248C19.2499 4.44789 17.7186 3.86456 15.8228 4.88539C13.854 5.90623 14.0728 8.09373 14.4374 12.5416C14.4374 12.8333 14.3645 13.1979 14.2186 13.4896C13.927 14.1458 13.4165 14.7291 12.979 15.2396C12.4686 15.9687 11.9582 16.6979 11.5936 17.5C10.7186 19.1771 9.91655 21.2916 10.1353 22.0937C10.4999 22.0208 15.0936 29.0208 15.0936 29.1666C15.3853 29.0937 16.6249 29.0937 17.7186 29.0937C19.2499 29.0208 20.1249 28.9479 21.3645 29.2396C21.3645 29.0208 21.2915 28.8021 21.2915 28.5833C21.2915 28.1458 21.3645 27.7812 21.4374 27.2708C21.5103 26.9062 21.5832 26.5416 21.6561 26.1041C20.927 26.7604 19.6145 27.4896 18.3749 27.7083C17.2811 27.9271 15.4582 27.5625 14.5832 26.4687C14.6561 26.4687 14.802 26.4687 14.8749 26.3958C15.0936 26.3229 15.3124 26.25 15.3853 26.1041C15.604 25.7396 15.4582 25.375 15.3124 25.1562C15.1665 24.9375 14.0728 24.1354 13.5624 23.6979C13.052 23.2604 12.7603 23.0416 12.4686 22.75L11.8853 22.1666C11.7395 22.0208 11.6665 21.875 11.5936 21.8021C11.4478 21.4375 11.3749 21 11.4478 20.4166C11.5207 19.6146 11.8124 18.9583 12.177 18.2291C12.3228 17.9375 12.6874 17.3541 12.6874 17.3541C12.6874 17.3541 11.4478 20.4166 12.104 21.3646C12.104 21.3646 12.177 20.4166 12.4686 19.4687C12.6874 18.8125 13.052 17.8646 13.4895 17.3541C13.927 16.8437 15.0207 14.9479 15.0936 13.7812C15.0936 13.2708 15.1665 12.7604 15.1665 12.3958C14.8749 12.1041 19.979 11.375 20.2707 12.1771C20.3436 12.4687 21.3645 15.0937 21.9478 16.4791C22.2395 17.1354 22.604 17.7187 22.8228 18.4479C23.0415 19.25 23.1874 20.3437 23.1874 21.4375C23.1874 21.6562 23.1874 22.0208 23.1145 22.3854C23.2603 22.3854 26.104 19.3229 22.7499 16.7708C22.7499 16.7708 24.7915 17.7187 24.8645 19.6146C24.9374 21.1458 24.2811 22.3854 24.1353 22.6041C24.2082 22.6041 25.6665 23.2604 25.7395 23.2604C26.0311 23.2604 26.6145 23.0416 26.6145 23.0416C26.6874 22.8229 26.9061 22.2396 26.9061 22.0208C27.4165 20.3437 26.177 17.6458 25.0103 15.9687Z" fill="#263238"/>
<path d="M15.7499 11.1562C16.2734 11.1562 16.6978 10.5033 16.6978 9.69784C16.6978 8.89242 16.2734 8.2395 15.7499 8.2395C15.2264 8.2395 14.802 8.89242 14.802 9.69784C14.802 10.5033 15.2264 11.1562 15.7499 11.1562Z" fill="#ECEFF1"/>
<path d="M19.0311 11.302C19.7157 11.302 20.2707 10.5512 20.2707 9.62496C20.2707 8.69873 19.7157 7.94788 19.0311 7.94788C18.3465 7.94788 17.7915 8.69873 17.7915 9.62496C17.7915 10.5512 18.3465 11.302 19.0311 11.302Z" fill="#ECEFF1"/>
<path d="M16.28 9.79759C16.2194 9.31816 15.9436 8.95816 15.6639 8.99351C15.3842 9.02886 15.2066 9.44617 15.2672 9.92561C15.3278 10.405 15.6037 10.765 15.8833 10.7297C16.163 10.6943 16.3406 10.277 16.28 9.79759Z" fill="#212121"/>
<path d="M18.9582 10.8646C19.3609 10.8646 19.6873 10.4402 19.6873 9.91667C19.6873 9.39315 19.3609 8.96875 18.9582 8.96875C18.5555 8.96875 18.229 9.39315 18.229 9.91667C18.229 10.4402 18.5555 10.8646 18.9582 10.8646Z" fill="#212121"/>
<path d="M28.6562 25.9584C28.3646 25.8125 27.8541 25.5938 27.4166 24.9375C27.1979 24.573 27.2708 23.5521 26.9062 23.1146C26.6875 22.823 26.3958 22.9688 26.3229 22.9688C25.6666 23.1146 24.1354 24.1355 23.1146 22.9688C22.9687 22.823 22.75 22.6042 22.3854 22.6042C22.0208 22.6042 21.875 22.75 21.7291 23.0417C21.5833 23.3334 21.5833 23.5521 21.5833 24.2813C21.5833 24.8646 21.5833 25.5209 21.5104 26.0313C21.3646 27.2709 21.1458 28 21.1458 28.7292C21.1458 29.5313 21.3646 30.0417 21.6562 30.2605C21.875 30.4792 22.2396 30.625 23.0416 30.625C23.8437 30.625 24.3541 30.3334 24.8646 29.823C25.2291 29.4584 25.5208 29.3125 26.5416 28.5834C27.3437 28.073 28.5833 27.4167 28.8021 27.198C28.9479 27.0521 29.1666 26.9792 29.1666 26.5417C29.1666 26.1771 28.875 26.0313 28.6562 25.9584ZM14 26.1771C13.2708 25.0105 13.1979 24.7917 12.6875 24.0625C12.25 23.3334 11.3021 21.948 10.7187 21.948C10.2812 21.948 10.0625 22.1667 9.7708 22.4584C9.47914 22.75 9.18747 23.4063 8.67705 23.7709C8.23955 24.1355 6.99997 24.0625 6.7083 24.5C6.41663 24.9375 6.99997 25.5938 6.99997 26.6875C6.99997 27.125 6.63539 27.4167 6.56247 27.7084C6.48955 28.073 6.41664 28.2917 6.56247 28.5834C6.85414 29.0209 7.21872 29.1667 9.69789 29.6771C11.0104 29.9688 12.25 30.698 13.0521 30.7709C13.8541 30.8438 15.2396 30.7709 15.2396 28.8021C15.3125 27.6355 14.6562 27.3438 14 26.1771ZM15.3854 12.9792C14.9479 12.6875 14.5833 12.3959 14.5833 11.9584C14.5833 11.5209 14.875 11.375 15.3125 11.0105C15.3854 10.9375 16.1875 10.2084 16.9896 10.2084C17.7916 10.2084 18.7396 10.7188 19.1041 10.8646C19.7604 11.0105 20.4166 11.1563 20.3437 11.6667C20.2708 12.3959 20.1979 12.5417 19.4687 12.9063C18.9583 13.0521 18.0104 13.8542 17.3541 13.8542C17.0625 13.8542 16.625 13.8542 16.3333 13.7813C16.1146 13.7084 15.75 13.3438 15.3854 12.9792Z" fill="#FFC107"/>
<path d="M15.2397 12.3958C15.3855 12.5417 15.6042 12.6875 15.823 12.7604C15.9688 12.8333 16.1876 12.9063 16.1876 12.9063H16.8438C17.2084 12.9063 17.7188 12.7604 18.2292 12.4688C18.7397 12.25 18.8126 12.1042 19.1772 11.9583C19.5417 11.7396 19.9063 11.5208 19.7605 11.4479C19.6147 11.375 19.4688 11.4479 18.9584 11.7396C18.5209 12.0313 18.1563 12.1771 17.7188 12.3958C17.5001 12.4688 17.2084 12.6146 16.9897 12.6146H16.3334C16.1147 12.6146 15.9688 12.5417 15.7501 12.4688C15.6042 12.3958 15.5313 12.3229 15.4584 12.3229C15.3126 12.25 15.0209 11.9583 14.8751 11.8854C14.8751 11.8854 14.7292 11.8854 14.8022 11.9583L15.2397 12.3958ZM17.4272 10.7917C17.5001 10.9375 17.6459 10.9375 17.7188 11.0104C17.7917 11.0833 17.8647 11.0833 17.8647 11.0833C17.9376 11.0104 17.8647 10.8646 17.7917 10.8646C17.7917 10.7187 17.4272 10.7188 17.4272 10.7917ZM16.2605 10.9375C16.2605 11.0104 16.4063 11.0833 16.4063 11.0104C16.4792 10.9375 16.5522 10.8646 16.6251 10.8646C16.7709 10.7917 16.698 10.7188 16.4792 10.7188C16.3334 10.7917 16.3334 10.8646 16.2605 10.9375Z" fill="#634703"/>
<path d="M23.3334 23.8438V24.0625C23.4792 24.3542 23.8438 24.4271 24.1355 24.4271C24.573 24.4271 25.0105 24.1354 25.2292 23.8438C25.2292 23.7709 25.3022 23.6979 25.3751 23.625C25.5209 23.4063 25.5938 23.2604 25.6667 23.1875C25.6667 23.1875 25.5938 23.1146 25.5938 23.0417C25.5209 22.8959 25.3022 22.75 25.0105 22.6771C24.7917 22.6042 24.4272 22.5313 24.2813 22.5313C23.6251 22.4584 23.2605 22.6771 23.0417 22.8959C23.0417 22.8959 23.1147 22.8959 23.1147 22.9688C23.2605 23.1146 23.3334 23.2604 23.3334 23.4792C23.4063 23.625 23.3334 23.6979 23.3334 23.8438Z" fill="#455A64"/>
</svg>
