<svg width="16" height="16" viewBox="0 0 16 16" fill="none" xmlns="http://www.w3.org/2000/svg">
<path d="M12.7365 3.97006C12.8047 3.90042 12.8862 3.8451 12.9761 3.80734C13.0659 3.76957 13.1625 3.75012 13.26 3.75012C13.3575 3.75012 13.454 3.76957 13.5439 3.80734C13.6338 3.8451 13.7152 3.90042 13.7835 3.97006C14.0695 4.25906 14.0735 4.72606 13.7935 5.02006L7.88047 12.0101C7.81333 12.0838 7.73187 12.143 7.64105 12.1842C7.55023 12.2253 7.45197 12.2475 7.35227 12.2494C7.25258 12.2513 7.15356 12.2328 7.06126 12.1951C6.96896 12.1574 6.88532 12.1012 6.81547 12.0301L3.21747 8.38406C3.07871 8.24254 3.00098 8.05225 3.00098 7.85406C3.00098 7.65586 3.07871 7.46557 3.21747 7.32406C3.28571 7.25442 3.36717 7.1991 3.45706 7.16134C3.54695 7.12357 3.64347 7.10412 3.74097 7.10412C3.83847 7.10412 3.93499 7.12357 4.02488 7.16134C4.11477 7.1991 4.19622 7.25442 4.26447 7.32406L7.31647 10.4171L12.7165 3.99206C12.7227 3.98433 12.7294 3.97698 12.7365 3.97006Z" fill="#7197F9"/>
</svg>
