<svg width="20" height="20" viewBox="0 0 20 20" fill="none" xmlns="http://www.w3.org/2000/svg">
<path d="M9.99846 2C11.0885 2 12.1115 2.28 12.9935 2.77C12.7399 2.99808 12.5268 3.26758 12.3635 3.567C11.6318 3.19249 10.8214 2.9981 9.99946 3C7.37646 3 5.22946 4.924 5.01946 7.385L5.00546 7.597L5.00046 7.802V11.5L4.96246 11.692L3.99946 14.005L15.9575 14.007L16.0025 14.005L15.0395 11.692L15.0005 11.5V8C15.3515 8 15.6885 7.94 16.0005 7.83V11.398L16.9255 13.62C16.9475 13.674 16.9655 13.73 16.9785 13.787L16.9935 13.873L17.0025 14.005C17.0013 14.2258 16.9271 14.44 16.7914 14.6142C16.6558 14.7884 16.4663 14.9128 16.2525 14.968L16.1365 14.995L16.0025 15.005L12.5005 15.004L12.4955 15.165C12.4553 15.7994 12.1749 16.3947 11.7114 16.8298C11.248 17.2648 10.6361 17.507 10.0005 17.507C9.36478 17.507 8.75297 17.2648 8.28948 16.8298C7.826 16.3947 7.54565 15.7994 7.50546 15.165L7.50046 15.004H4.00046C3.91268 15.0042 3.82526 14.9927 3.74046 14.97L3.61546 14.928C3.4136 14.8429 3.24526 14.6939 3.13633 14.5038C3.02739 14.3138 2.98387 14.0932 3.01246 13.876L3.03446 13.748L3.07646 13.62L3.99946 11.401L4.00046 7.793L4.00546 7.568C4.12746 4.451 6.77046 2 9.99846 2ZM11.5005 15.004H8.50046L8.50746 15.145C8.54111 15.4913 8.69407 15.8151 8.94016 16.061C9.18626 16.3069 9.51017 16.4596 9.85646 16.493L10.0005 16.5C10.3732 16.5 10.7326 16.3612 11.0086 16.1108C11.2846 15.8603 11.4574 15.516 11.4935 15.145L11.5005 15.004ZM13.2075 4.114C13.3575 3.809 13.5835 3.549 13.8605 3.357C14.2605 3.07956 14.7479 2.95754 15.2315 3.0138C15.715 3.07006 16.1614 3.30074 16.487 3.66261C16.8126 4.02448 16.9951 4.49268 17.0002 4.97945C17.0053 5.46622 16.8327 5.93814 16.5147 6.30675C16.1968 6.67536 15.7553 6.91534 15.273 6.98172C14.7908 7.04809 14.3009 6.9363 13.8951 6.6673C13.4894 6.3983 13.1957 5.99056 13.0691 5.52051C12.9425 5.05046 12.9917 4.55038 13.2075 4.114Z" fill="black"/>
</svg>
