<svg width="20" height="20" viewBox="0 0 20 20" fill="none" xmlns="http://www.w3.org/2000/svg">
<g clip-path="url(#clip0_512_1132)">
<path d="M10 18.75C7.67936 18.75 5.45376 17.8281 3.81282 16.1872C2.17187 14.5462 1.25 12.3206 1.25 10C1.25 7.67936 2.17187 5.45376 3.81282 3.81282C5.45376 2.17187 7.67936 1.25 10 1.25C12.3206 1.25 14.5462 2.17187 16.1872 3.81282C17.8281 5.45376 18.75 7.67936 18.75 10C18.75 12.3206 17.8281 14.5462 16.1872 16.1872C14.5462 17.8281 12.3206 18.75 10 18.75ZM10 20C12.6522 20 15.1957 18.9464 17.0711 17.0711C18.9464 15.1957 20 12.6522 20 10C20 7.34784 18.9464 4.8043 17.0711 2.92893C15.1957 1.05357 12.6522 0 10 0C7.34784 0 4.8043 1.05357 2.92893 2.92893C1.05357 4.8043 0 7.34784 0 10C0 12.6522 1.05357 15.1957 2.92893 17.0711C4.8043 18.9464 7.34784 20 10 20Z" fill="#FF0707"/>
<path d="M6.25 8.125C6.25 7.62772 6.44754 7.15081 6.79917 6.79917C7.15081 6.44754 7.62772 6.25 8.125 6.25H11.875C12.3723 6.25 12.8492 6.44754 13.2008 6.79917C13.5525 7.15081 13.75 7.62772 13.75 8.125V11.875C13.75 12.3723 13.5525 12.8492 13.2008 13.2008C12.8492 13.5525 12.3723 13.75 11.875 13.75H8.125C7.62772 13.75 7.15081 13.5525 6.79917 13.2008C6.44754 12.8492 6.25 12.3723 6.25 11.875V8.125Z" fill="#FF0707"/>
</g>
<defs>
<clipPath id="clip0_512_1132">
<rect width="20" height="20" fill="white"/>
</clipPath>
</defs>
</svg>
