<svg width="154" height="45" viewBox="0 0 154 45" fill="none" xmlns="http://www.w3.org/2000/svg">
<path d="M52.7515 28.144C51.7915 28.144 50.9035 27.988 50.0875 27.676C49.2835 27.352 48.5815 26.902 47.9815 26.326C47.3935 25.738 46.9315 25.054 46.5955 24.274C46.2595 23.494 46.0915 22.636 46.0915 21.7C46.0915 20.764 46.2595 19.906 46.5955 19.126C46.9315 18.346 47.3995 17.668 47.9995 17.092C48.5995 16.504 49.3015 16.054 50.1055 15.742C50.9215 15.418 51.8095 15.256 52.7695 15.256C53.7415 15.256 54.6355 15.424 55.4515 15.76C56.2795 16.084 56.9815 16.57 57.5575 17.218L56.3875 18.352C55.9075 17.848 55.3675 17.476 54.7675 17.236C54.1675 16.984 53.5255 16.858 52.8415 16.858C52.1335 16.858 51.4735 16.978 50.8615 17.218C50.2615 17.458 49.7395 17.794 49.2955 18.226C48.8515 18.658 48.5035 19.174 48.2515 19.774C48.0115 20.362 47.8915 21.004 47.8915 21.7C47.8915 22.396 48.0115 23.044 48.2515 23.644C48.5035 24.232 48.8515 24.742 49.2955 25.174C49.7395 25.606 50.2615 25.942 50.8615 26.182C51.4735 26.422 52.1335 26.542 52.8415 26.542C53.5255 26.542 54.1675 26.422 54.7675 26.182C55.3675 25.93 55.9075 25.546 56.3875 25.03L57.5575 26.164C56.9815 26.812 56.2795 27.304 55.4515 27.64C54.6355 27.976 53.7355 28.144 52.7515 28.144ZM60.2874 31.6C59.8314 31.6 59.3874 31.522 58.9554 31.366C58.5234 31.222 58.1514 31.006 57.8394 30.718L58.5774 29.422C58.8174 29.65 59.0814 29.824 59.3694 29.944C59.6574 30.064 59.9634 30.124 60.2874 30.124C60.7074 30.124 61.0554 30.016 61.3314 29.8C61.6074 29.584 61.8654 29.2 62.1054 28.648L62.6994 27.334L62.8794 27.118L66.6234 18.46H68.3154L63.6894 28.954C63.4134 29.626 63.1014 30.154 62.7534 30.538C62.4174 30.922 62.0454 31.192 61.6374 31.348C61.2294 31.516 60.7794 31.6 60.2874 31.6ZM62.5554 28.306L58.1994 18.46H59.9994L63.7074 26.956L62.5554 28.306ZM74.986 28.108C74.17 28.108 73.432 27.928 72.772 27.568C72.124 27.196 71.608 26.65 71.224 25.93C70.852 25.21 70.666 24.31 70.666 23.23C70.666 22.15 70.858 21.25 71.242 20.53C71.638 19.81 72.16 19.27 72.808 18.91C73.468 18.55 74.194 18.37 74.986 18.37C75.922 18.37 76.75 18.574 77.47 18.982C78.19 19.39 78.76 19.96 79.18 20.692C79.6 21.412 79.81 22.258 79.81 23.23C79.81 24.202 79.6 25.054 79.18 25.786C78.76 26.518 78.19 27.088 77.47 27.496C76.75 27.904 75.922 28.108 74.986 28.108ZM69.928 28V14.644H71.656V20.998L71.476 23.212L71.584 25.426V28H69.928ZM74.842 26.596C75.454 26.596 76 26.458 76.48 26.182C76.972 25.906 77.356 25.516 77.632 25.012C77.92 24.496 78.064 23.902 78.064 23.23C78.064 22.546 77.92 21.958 77.632 21.466C77.356 20.962 76.972 20.572 76.48 20.296C76 20.02 75.454 19.882 74.842 19.882C74.242 19.882 73.696 20.02 73.204 20.296C72.724 20.572 72.34 20.962 72.052 21.466C71.776 21.958 71.638 22.546 71.638 23.23C71.638 23.902 71.776 24.496 72.052 25.012C72.34 25.516 72.724 25.906 73.204 26.182C73.696 26.458 74.242 26.596 74.842 26.596ZM86.4456 28.108C85.4256 28.108 84.5256 27.898 83.7456 27.478C82.9776 27.058 82.3776 26.482 81.9456 25.75C81.5256 25.018 81.3156 24.178 81.3156 23.23C81.3156 22.282 81.5196 21.442 81.9276 20.71C82.3476 19.978 82.9176 19.408 83.6376 19C84.3696 18.58 85.1916 18.37 86.1036 18.37C87.0276 18.37 87.8436 18.574 88.5516 18.982C89.2596 19.39 89.8116 19.966 90.2076 20.71C90.6156 21.442 90.8196 22.3 90.8196 23.284C90.8196 23.356 90.8136 23.44 90.8016 23.536C90.8016 23.632 90.7956 23.722 90.7836 23.806H82.6656V22.564H89.8836L89.1816 22.996C89.1936 22.384 89.0676 21.838 88.8036 21.358C88.5396 20.878 88.1736 20.506 87.7056 20.242C87.2496 19.966 86.7156 19.828 86.1036 19.828C85.5036 19.828 84.9696 19.966 84.5016 20.242C84.0336 20.506 83.6676 20.884 83.4036 21.376C83.1396 21.856 83.0076 22.408 83.0076 23.032V23.32C83.0076 23.956 83.1516 24.526 83.4396 25.03C83.7396 25.522 84.1536 25.906 84.6816 26.182C85.2096 26.458 85.8156 26.596 86.4996 26.596C87.0636 26.596 87.5736 26.5 88.0296 26.308C88.4976 26.116 88.9056 25.828 89.2536 25.444L90.2076 26.56C89.7756 27.064 89.2356 27.448 88.5876 27.712C87.9516 27.976 87.2376 28.108 86.4456 28.108ZM93.2191 28V18.46H94.8751V21.052L94.7131 20.404C94.9771 19.744 95.4211 19.24 96.0451 18.892C96.6691 18.544 97.4371 18.37 98.3491 18.37V20.044C98.2771 20.032 98.2051 20.026 98.1331 20.026C98.0731 20.026 98.0131 20.026 97.9531 20.026C97.0291 20.026 96.2971 20.302 95.7571 20.854C95.2171 21.406 94.9471 22.204 94.9471 23.248V28H93.2191ZM103.998 28L98.4537 15.4H100.398L105.492 27.028H104.376L109.506 15.4H111.306L105.78 28H103.998ZM112.66 28V18.46H114.388V28H112.66ZM113.524 16.624C113.188 16.624 112.906 16.516 112.678 16.3C112.462 16.084 112.354 15.82 112.354 15.508C112.354 15.184 112.462 14.914 112.678 14.698C112.906 14.482 113.188 14.374 113.524 14.374C113.86 14.374 114.136 14.482 114.352 14.698C114.58 14.902 114.694 15.16 114.694 15.472C114.694 15.796 114.586 16.072 114.37 16.3C114.154 16.516 113.872 16.624 113.524 16.624ZM120.424 28.108C119.632 28.108 118.876 28 118.156 27.784C117.448 27.568 116.89 27.304 116.482 26.992L117.202 25.624C117.61 25.9 118.114 26.134 118.714 26.326C119.314 26.518 119.926 26.614 120.55 26.614C121.354 26.614 121.93 26.5 122.278 26.272C122.638 26.044 122.818 25.726 122.818 25.318C122.818 25.018 122.71 24.784 122.494 24.616C122.278 24.448 121.99 24.322 121.63 24.238C121.282 24.154 120.892 24.082 120.46 24.022C120.028 23.95 119.596 23.866 119.164 23.77C118.732 23.662 118.336 23.518 117.976 23.338C117.616 23.146 117.328 22.888 117.112 22.564C116.896 22.228 116.788 21.784 116.788 21.232C116.788 20.656 116.95 20.152 117.274 19.72C117.598 19.288 118.054 18.958 118.642 18.73C119.242 18.49 119.95 18.37 120.766 18.37C121.39 18.37 122.02 18.448 122.656 18.604C123.304 18.748 123.832 18.958 124.24 19.234L123.502 20.602C123.07 20.314 122.62 20.116 122.152 20.008C121.684 19.9 121.216 19.846 120.748 19.846C119.992 19.846 119.428 19.972 119.056 20.224C118.684 20.464 118.498 20.776 118.498 21.16C118.498 21.484 118.606 21.736 118.822 21.916C119.05 22.084 119.338 22.216 119.686 22.312C120.046 22.408 120.442 22.492 120.874 22.564C121.306 22.624 121.738 22.708 122.17 22.816C122.602 22.912 122.992 23.05 123.34 23.23C123.7 23.41 123.988 23.662 124.204 23.986C124.432 24.31 124.546 24.742 124.546 25.282C124.546 25.858 124.378 26.356 124.042 26.776C123.706 27.196 123.232 27.526 122.62 27.766C122.008 27.994 121.276 28.108 120.424 28.108ZM126.705 28V18.46H128.433V28H126.705ZM127.569 16.624C127.233 16.624 126.951 16.516 126.723 16.3C126.507 16.084 126.399 15.82 126.399 15.508C126.399 15.184 126.507 14.914 126.723 14.698C126.951 14.482 127.233 14.374 127.569 14.374C127.905 14.374 128.181 14.482 128.397 14.698C128.625 14.902 128.739 15.16 128.739 15.472C128.739 15.796 128.631 16.072 128.415 16.3C128.199 16.516 127.917 16.624 127.569 16.624ZM135.819 28.108C134.859 28.108 134.007 27.898 133.263 27.478C132.519 27.058 131.931 26.482 131.499 25.75C131.067 25.006 130.851 24.166 130.851 23.23C130.851 22.282 131.067 21.442 131.499 20.71C131.931 19.978 132.519 19.408 133.263 19C134.007 18.58 134.859 18.37 135.819 18.37C136.767 18.37 137.613 18.58 138.357 19C139.113 19.408 139.701 19.978 140.121 20.71C140.553 21.43 140.769 22.27 140.769 23.23C140.769 24.178 140.553 25.018 140.121 25.75C139.701 26.482 139.113 27.058 138.357 27.478C137.613 27.898 136.767 28.108 135.819 28.108ZM135.819 26.596C136.431 26.596 136.977 26.458 137.457 26.182C137.949 25.906 138.333 25.516 138.609 25.012C138.885 24.496 139.023 23.902 139.023 23.23C139.023 22.546 138.885 21.958 138.609 21.466C138.333 20.962 137.949 20.572 137.457 20.296C136.977 20.02 136.431 19.882 135.819 19.882C135.207 19.882 134.661 20.02 134.181 20.296C133.701 20.572 133.317 20.962 133.029 21.466C132.741 21.958 132.597 22.546 132.597 23.23C132.597 23.902 132.741 24.496 133.029 25.012C133.317 25.516 133.701 25.906 134.181 26.182C134.661 26.458 135.207 26.596 135.819 26.596ZM148.253 18.37C149.033 18.37 149.717 18.52 150.305 18.82C150.905 19.12 151.373 19.576 151.709 20.188C152.045 20.8 152.213 21.574 152.213 22.51V28H150.485V22.708C150.485 21.784 150.257 21.088 149.801 20.62C149.357 20.152 148.727 19.918 147.911 19.918C147.299 19.918 146.765 20.038 146.309 20.278C145.853 20.518 145.499 20.872 145.247 21.34C145.007 21.808 144.887 22.39 144.887 23.086V28H143.159V18.46H144.815V21.034L144.545 20.35C144.857 19.726 145.337 19.24 145.985 18.892C146.633 18.544 147.389 18.37 148.253 18.37Z" fill="#222359"/>
<path d="M33.7571 30.7575C33.7057 30.7061 33.6446 30.6652 33.5774 30.6374C33.5102 30.6096 33.4381 30.5952 33.3654 30.5952C33.2926 30.5952 33.2206 30.6096 33.1534 30.6374C33.0862 30.6652 33.0251 30.7061 32.9737 30.7575L32.2573 31.4739L29.8104 29.027C32.9046 25.7273 34.5776 21.3435 34.4685 16.8213C34.3595 12.2991 32.4772 8.00102 29.2276 4.85424C25.978 1.70746 21.6216 -0.0357921 17.0983 0.000557245C12.5749 0.0369066 8.24713 1.84994 5.04854 5.04854C1.84994 8.24713 0.0369066 12.5749 0.000557245 17.0983C-0.0357921 21.6216 1.70746 25.978 4.85424 29.2276C8.00102 32.4772 12.2991 34.3595 16.8213 34.4685C21.3435 34.5776 25.7273 32.9046 29.027 29.8104L31.4739 32.2573L30.7576 32.9736C30.7061 33.0251 30.6653 33.0861 30.6374 33.1533C30.6096 33.2206 30.5953 33.2926 30.5953 33.3653C30.5953 33.4381 30.6096 33.5101 30.6374 33.5773C30.6653 33.6445 30.7061 33.7056 30.7576 33.757L41.8382 44.8377C41.8896 44.8891 41.9507 44.9299 42.0179 44.9578C42.0851 44.9856 42.1571 45 42.2299 45C42.3026 45 42.3747 44.9856 42.4419 44.9578C42.5091 44.9299 42.5701 44.8891 42.6216 44.8377L44.8377 42.6215C44.8892 42.5701 44.93 42.509 44.9578 42.4418C44.9857 42.3746 45 42.3026 45 42.2298C45 42.1571 44.9857 42.085 44.9578 42.0178C44.93 41.9506 44.8892 41.8896 44.8377 41.8381L33.7571 30.7575ZM17.2985 33.3654C14.1207 33.3654 11.0144 32.4231 8.37218 30.6576C5.72999 28.8921 3.67066 26.3828 2.45459 23.447C1.23852 20.5112 0.920346 17.2806 1.54029 14.164C2.16024 11.0473 3.69046 8.18445 5.93746 5.93746C8.18445 3.69046 11.0473 2.16024 14.164 1.54029C17.2806 0.920346 20.5112 1.23852 23.447 2.45459C26.3828 3.67066 28.8921 5.72999 30.6576 8.37218C32.4231 11.0144 33.3654 14.1207 33.3654 17.2985C33.3605 21.5582 31.6661 25.642 28.6541 28.6541C25.642 31.6661 21.5582 33.3605 17.2985 33.3654ZM42.2299 43.6626L31.9326 33.3654L33.3654 31.9326L43.6626 42.2299L42.2299 43.6626Z" fill="#222359"/>
<path d="M8.90924 17.8525H15.0823C15.155 17.8525 15.2271 17.8382 15.2943 17.8103C15.3615 17.7825 15.4225 17.7417 15.474 17.6902L20.8519 12.3122H24.5795C24.7143 12.8345 25.035 13.2896 25.4814 13.5923C25.9278 13.8951 26.4694 14.0246 27.0044 13.9566C27.5395 13.8887 28.0315 13.6279 28.388 13.2231C28.7446 12.8184 28.9413 12.2975 28.9413 11.7582C28.9413 11.2188 28.7446 10.6979 28.388 10.2932C28.0315 9.88845 27.5395 9.62766 27.0044 9.5597C26.4694 9.49173 25.9278 9.62125 25.4814 9.92398C25.035 10.2267 24.7143 10.6819 24.5795 11.2041H8.66376L13.0955 6.77188H21.6884C21.8353 6.77188 21.9762 6.71351 22.0801 6.60961C22.184 6.50571 22.2424 6.36479 22.2424 6.21785C22.2424 6.07091 22.184 5.92999 22.0801 5.82609C21.9762 5.72219 21.8353 5.66382 21.6884 5.66382H12.8661C12.7934 5.66381 12.7213 5.67814 12.6541 5.70599C12.5869 5.73384 12.5258 5.77466 12.4744 5.82613L6.95574 11.3454L6.94816 11.3567C6.86677 11.4323 6.81007 11.5306 6.7855 11.6389C6.76092 11.7471 6.76961 11.8603 6.81042 11.9635C6.85123 12.0668 6.92227 12.1553 7.01423 12.2175C7.10619 12.2797 7.2148 12.3127 7.32582 12.3122H19.2851L14.8529 16.7444H8.90924C8.77439 16.2222 8.4537 15.767 8.00727 15.4643C7.56085 15.1616 7.01934 15.032 6.48425 15.1C5.94916 15.168 5.45722 15.4288 5.10065 15.8335C4.74408 16.2382 4.54736 16.7591 4.54736 17.2985C4.54736 17.8379 4.74408 18.3587 5.10065 18.7635C5.45722 19.1682 5.94916 19.429 6.48425 19.4969C7.01934 19.5649 7.56085 19.4354 8.00727 19.1326C8.4537 18.8299 8.77439 18.3748 8.90924 17.8525ZM26.7169 10.6501C26.9361 10.6501 27.1503 10.7151 27.3325 10.8368C27.5147 10.9586 27.6567 11.1316 27.7406 11.3341C27.8245 11.5366 27.8464 11.7594 27.8037 11.9743C27.7609 12.1893 27.6554 12.3867 27.5004 12.5417C27.3455 12.6966 27.148 12.8022 26.9331 12.8449C26.7181 12.8877 26.4953 12.8657 26.2929 12.7819C26.0904 12.698 25.9173 12.556 25.7956 12.3738C25.6738 12.1915 25.6088 11.9773 25.6088 11.7582C25.6091 11.4644 25.726 11.1827 25.9337 10.975C26.1414 10.7672 26.4231 10.6504 26.7169 10.6501ZM5.66373 17.2985C5.66373 17.0793 5.72871 16.8651 5.85047 16.6829C5.97222 16.5006 6.14528 16.3586 6.34775 16.2748C6.55022 16.1909 6.77302 16.1689 6.98796 16.2117C7.2029 16.2545 7.40034 16.36 7.55531 16.5149C7.71027 16.6699 7.8158 16.8674 7.85856 17.0823C7.90131 17.2972 7.87937 17.52 7.7955 17.7225C7.71164 17.925 7.56962 18.098 7.3874 18.2198C7.20518 18.3415 6.99094 18.4065 6.77179 18.4065C6.478 18.4062 6.19633 18.2894 5.9886 18.0817C5.78086 17.8739 5.66402 17.5923 5.66373 17.2985Z" fill="#222359"/>
<path d="M30.5953 16.7444H22.8389C22.7661 16.7444 22.6941 16.7587 22.6269 16.7866C22.5596 16.8144 22.4986 16.8553 22.4471 16.9067L17.0692 22.2847H7.326C7.17907 22.2847 7.03815 22.3431 6.93424 22.447C6.83034 22.5509 6.77197 22.6918 6.77197 22.8388C6.77197 22.9857 6.83034 23.1266 6.93424 23.2305C7.03815 23.3344 7.17907 23.3928 7.326 23.3928H23.718L19.2853 27.825H15.5578C15.4229 27.3028 15.1023 26.8476 14.6558 26.5449C14.2094 26.2422 13.6679 26.1127 13.1328 26.1806C12.5977 26.2486 12.1058 26.5094 11.7492 26.9141C11.3926 27.3188 11.1959 27.8397 11.1959 28.3791C11.1959 28.9185 11.3926 29.4393 11.7492 29.8441C12.1058 30.2488 12.5977 30.5096 13.1328 30.5775C13.6679 30.6455 14.2094 30.516 14.6558 30.2133C15.1023 29.9105 15.4229 29.4554 15.5578 28.9331H19.5147C19.5874 28.9331 19.6595 28.9188 19.7267 28.8909C19.7939 28.8631 19.855 28.8223 19.9064 28.7708L25.2849 23.3928H28.3792C28.5261 23.3928 28.667 23.3344 28.7709 23.2305C28.8748 23.1266 28.9332 22.9857 28.9332 22.8388C28.9332 22.6918 28.8748 22.5509 28.7709 22.447C28.667 22.3431 28.5261 22.2847 28.3792 22.2847H18.636L23.0682 17.8525H30.5953C30.7422 17.8525 30.8832 17.7941 30.9871 17.6902C31.091 17.5863 31.1493 17.4454 31.1493 17.2985C31.1493 17.1515 31.091 17.0106 30.9871 16.9067C30.8832 16.8028 30.7422 16.7444 30.5953 16.7444ZM13.4203 29.4871C13.2012 29.4871 12.987 29.4222 12.8047 29.3004C12.6225 29.1786 12.4805 29.0056 12.3966 28.8031C12.3128 28.6006 12.2908 28.3778 12.3336 28.1629C12.3763 27.948 12.4819 27.7505 12.6368 27.5956C12.7918 27.4406 12.9892 27.3351 13.2042 27.2923C13.4191 27.2496 13.6419 27.2715 13.8444 27.3554C14.0469 27.4392 14.2199 27.5813 14.3417 27.7635C14.4634 27.9457 14.5284 28.1599 14.5284 28.3791C14.5282 28.6729 14.4114 28.9546 14.2036 29.1624C13.9959 29.3701 13.7142 29.4869 13.4203 29.4871Z" fill="#222359"/>
</svg>
